PathFileType	4	(X/Y/Z)	/Users/itak/Documents/Research/Walk-IL/dataset/trc/00024_00004.trc
DataRate	CameraRate	NumFrames	NumMarkers	Units	OrigDataRate	OrigDataStartFrame	OrigNumFrames
100.000000	100.000000	4	53	mm	100.000000	0	764
Frame#	Time	RPSI			LPSI			L3			STRN			T10			C7			CLAV			RBAK			LBAK			LSHO			LUPA			LAEL			LAOL			LWTS			LWPS			LFRA			LIFD			LHPS			LHTS			RSHO			RUPA			RAEL			RAOL			RWTS			RWPS			RFRA			RIFD			RHTS			RHPS			RBHD			LFHD			RFHD			LBHD			LHIP			RHIP			RASI			LASI			LKNE			LTHI			LANK			LTIP			LTOE			LMT1			LMT5			LHEE			RKNE			RTHI			RANK			RTIP			RTOE			RMT1			RMT5			RHEE			
		X1	Y1	Z1	X2	Y2	Z2	X3	Y3	Z3	X4	Y4	Z4	X5	Y5	Z5	X6	Y6	Z6	X7	Y7	Z7	X8	Y8	Z8	X9	Y9	Z9	X10	Y10	Z10	X11	Y11	Z11	X12	Y12	Z12	X13	Y13	Z13	X14	Y14	Z14	X15	Y15	Z15	X16	Y16	Z16	X17	Y17	Z17	X18	Y18	Z18	X19	Y19	Z19	X20	Y20	Z20	X21	Y21	Z21	X22	Y22	Z22	X23	Y23	Z23	X24	Y24	Z24	X25	Y25	Z25	X26	Y26	Z26	X27	Y27	Z27	X28	Y28	Z28	X29	Y29	Z29	X30	Y30	Z30	X31	Y31	Z31	X32	Y32	Z32	X33	Y33	Z33	X34	Y34	Z34	X35	Y35	Z35	X36	Y36	Z36	X37	Y37	Z37	X38	Y38	Z38	X39	Y39	Z39	X40	Y40	Z40	X41	Y41	Z41	X42	Y42	Z42	X43	Y43	Z43	X44	Y44	Z44	X45	Y45	Z45	X46	Y46	Z46	X47	Y47	Z47	X48	Y48	Z48	X49	Y49	Z49	X50	Y50	Z50	X51	Y51	Z51	X52	Y52	Z52	X53	Y53	Z53	

1	0	-202.4418334960938	1075.217651367188	992.0692749023438	-210.1734008789062	1065.115112304688	829.308837890625	-212.7186126708984	1126.154296875	901.3238525390625	7.511384963989258	1323.479248046875	901.0833740234375	-243.1775665283203	1271.748168945312	897.0562133789062	-196.2109375	1539.717163085938	889.863525390625	-36.53656005859375	1448.942504882812	896.966552734375	-247.904541015625	1402.217895507812	967.9600219726562	-212.3098297119141	1499.506591796875	792.8853759765625	-110.4101486206055	1509.48193359375	720.5691528320312	-137.2600708007812	1385.159057617188	641.0740356445312	-130.3005065917969	1166.046508789062	617.6085205078125	-187.6757354736328	1153.719482421875	705.8403930664062	-42.88323593139648	912.6749267578125	677.5556640625	-118.4989318847656	897.6497802734375	633.0047607421875	-115.8384017944336	1049.937622070312	612.7839965820312	-21.52844429016113	725.1739501953125	701.1359252929688	-87.62952423095703	807.2162475585938	636.9706420898438	-23.35404014587402	816.0116577148438	667.6913452148438	-124.0141143798828	1524.9013671875	1063.045532226562	-139.6024322509766	1456.103637695312	1135.345336914062	-173.6117858886719	1187.218872070312	1160.088134765625	-173.2373657226562	1159.495483398438	1063.680786132812	-44.53298950195312	924.3746337890625	1134.625732421875	-109.5943832397461	911.1312866210938	1197.722900390625	-160.5831756591797	1110.953491210938	1176.507080078125	-22.39944839477539	736.8613891601562	1127.004760742188	-11.20620155334473	814.8963623046875	1150.506958007812	-67.33216857910156	811.7200927734375	1199.278930664062	-173.9290618896484	1714.317016601562	896.0170288085938	40.45127868652344	1741.42626953125	867.9692993164062	-25.95198249816895	1744.930908203125	795.3807373046875	-71.79563140869141	1706.973388671875	997.5164794921875	-117.9988250732422	960.1395263671875	715.4425048828125	-85.74587249755859	961.6356201171875	1087.935302734375	13.21958827972412	996.338134765625	1009.909606933594	-2.056786060333252	1009.39453125	775.273681640625	-71.12940979003906	515.3908081054688	777.9752807617188	-94.93384552001953	652.2525634765625	736.8528442382812	-175.84716796875	40.44853591918945	797.3088989257812	-153.5795593261719	283.7322082519531	769.8546142578125	38.54766082763672	38.14044952392578	879.2018432617188	-21.73335647583008	46.6323356628418	891.6280517578125	-50.58322525024414	41.48464965820312	789.4675903320312	-248.4630126953125	48.18947601318359	844.2814331054688	-39.44722747802734	525.3450317382812	1042.978881835938	-50.60248565673828	795.9449462890625	1087.304809570312	-221.3202819824219	55.08923721313477	1012.642150878906	-74.79164123535156	398.4214782714844	1042.247924804688	12.46329498291016	48.84695816040039	992.0192260742188	-47.38972091674805	54.43254852294922	955.8598022460938	-75.92851257324219	46.57683944702148	1048.892944335938	-272.025146484375	57.90301132202148	962.6544799804688	
2	0.01	-202.3299713134766	1075.09521484375	991.95263671875	-210.2000122070312	1065.040283203125	829.2489624023438	-212.6424713134766	1126.168823242188	901.2925415039062	7.589147090911865	1323.439453125	901.0768432617188	-243.091552734375	1271.73095703125	896.9678344726562	-196.0492553710938	1539.708618164062	889.7830200195312	-36.413330078125	1448.895141601562	896.92529296875	-247.7945709228516	1402.224365234375	967.8624877929688	-212.1166839599609	1499.470703125	792.7687377929688	-110.1552658081055	1509.41552734375	720.5020141601562	-136.9711761474609	1385.13134765625	640.9503784179688	-129.9548034667969	1166.038940429688	617.314453125	-187.4897613525391	1153.65478515625	705.4556884765625	-42.61952590942383	912.6422729492188	677.1248168945312	-118.1154861450195	897.6416015625	632.5155029296875	-115.5264739990234	1049.942260742188	612.404541015625	-21.21215438842773	725.128662109375	700.5545654296875	-87.23554229736328	807.2294311523438	636.4160766601562	-23.03476524353027	815.9700927734375	667.1965942382812	-123.894416809082	1524.875	1062.980590820312	-139.5186767578125	1456.093872070312	1135.277954101562	-173.6680450439453	1187.2001953125	1159.933837890625	-173.2900543212891	1159.521118164062	1063.545166015625	-44.86754608154297	924.35302734375	1134.38623046875	-109.7571334838867	911.1051025390625	1197.505981445312	-160.6989593505859	1110.911743164062	1176.30126953125	-22.5594367980957	736.8458251953125	1126.686889648438	-11.35267448425293	814.8477172851562	1150.230590820312	-67.6407470703125	811.6506958007812	1199.034545898438	-173.7103118896484	1714.278686523438	895.778564453125	40.70285797119141	1741.380249023438	867.844482421875	-25.70179176330566	1744.828002929688	795.2114868164062	-71.72746276855469	1706.986083984375	997.3716430664062	-118.0376510620117	960.1234130859375	715.3572998046875	-85.57778167724609	961.6033325195312	1087.82421875	13.35881423950195	996.367431640625	1009.692932128906	-2.051254987716675	1009.355773925781	775.0553588867188	-71.38473510742188	515.4475708007812	777.8734741210938	-95.0732421875	652.2906494140625	736.8763427734375	-175.8470153808594	40.43132781982422	797.2969970703125	-153.8382415771484	283.7358093261719	769.7816162109375	38.5472297668457	38.15383911132812	879.1774291992188	-21.7252140045166	46.64838409423828	891.5892333984375	-50.59888076782227	41.46739959716797	789.4329223632812	-248.4574737548828	48.16780853271484	844.3013305664062	-38.45818710327148	525.3872680664062	1042.947265625	-50.08319854736328	796.0197143554688	1087.23583984375	-220.2827758789062	55.00756454467773	1012.756469726562	-73.69132232666016	398.4833984375	1042.251098632812	13.55196762084961	49.73860549926758	992.1943359375	-46.43124389648438	54.84523010253906	956.0299682617188	-74.84225463867188	47.05511093139648	1049.045166015625	-270.9473266601562	57.65330505371094	962.8031616210938	
3	0.02	-202.1506500244141	1074.960693359375	991.8475952148438	-210.2196350097656	1064.951904296875	829.2083129882812	-212.5471801757812	1126.18310546875	901.2702026367188	7.708813190460205	1323.399780273438	901.07666015625	-242.9674530029297	1271.711059570312	896.9069213867188	-195.8351135253906	1539.696655273438	889.7161254882812	-36.25342559814453	1448.839233398438	896.8932495117188	-247.6470642089844	1402.223266601562	967.7694702148438	-211.8761291503906	1499.431640625	792.6558227539062	-109.8639526367188	1509.340698242188	720.440673828125	-136.6194610595703	1385.104370117188	640.8189086914062	-129.5292053222656	1166.038330078125	616.9613647460938	-187.2391052246094	1153.573120117188	705.0003662109375	-42.2578010559082	912.6050415039062	676.595703125	-117.6232452392578	897.6438598632812	631.9140625	-115.1173324584961	1049.959838867188	611.9473876953125	-20.79718589782715	725.07470703125	699.8413696289062	-86.73472595214844	807.253662109375	635.7337036132812	-22.61462020874023	815.9302978515625	666.5895385742188	-123.7328414916992	1524.842529296875	1062.919067382812	-139.3992767333984	1456.082153320312	1135.216796875	-173.7203063964844	1187.174926757812	1159.768798828125	-173.3385620117188	1159.547119140625	1063.4013671875	-45.27941131591797	924.3096923828125	1134.115844726562	-109.9576873779297	911.0638427734375	1197.255249023438	-160.8217010498047	1110.861206054688	1176.07763671875	-22.74205207824707	736.82177734375	1126.330810546875	-11.54090023040771	814.782470703125	1149.919189453125	-67.98666381835938	811.5599365234375	1198.747680664062	-173.4391326904297	1714.243774414062	895.4888305664062	41.03907012939453	1741.319580078125	867.7166748046875	-25.35342407226562	1744.692993164062	795.0233154296875	-71.62160491943359	1707.018188476562	997.2039794921875	-118.0974349975586	960.10205078125	715.2732543945312	-85.26649475097656	961.5771484375	1087.693359375	13.58811187744141	996.4130249023438	1009.420776367188	-2.023559808731079	1009.3154296875	774.7806396484375	-71.67903900146484	515.5103149414062	777.7693481445312	-95.23045349121094	652.3333740234375	736.9254760742188	-175.85205078125	40.41864013671875	797.2898559570312	-154.1399993896484	283.7437744140625	769.7122192382812	38.54784393310547	38.16535949707031	879.1477661132812	-21.71182441711426	46.66799163818359	891.541259765625	-50.61619567871094	41.44622421264648	789.3908081054688	-248.4627075195312	48.14159393310547	844.3235473632812	-37.34992980957031	525.4529418945312	1042.870361328125	-49.44747543334961	796.1021118164062	1087.150268554688	-218.7561950683594	54.81622695922852	1012.951782226562	-72.41428375244141	398.56201171875	1042.253784179688	15.10466384887695	50.82059478759766	992.4775390625	-44.99533462524414	55.34034729003906	956.3026123046875	-73.28608703613281	47.60868072509766	1049.296997070312	-269.3924560546875	57.22238540649414	963.0307006835938	
4	0.03	-201.8921813964844	1074.827758789062	991.7803955078125	-210.2226867675781	1064.857788085938	829.2046508789062	-212.4306488037109	1126.196166992188	901.2698364257812	7.877799987792969	1323.366821289062	901.085693359375	-242.8018493652344	1271.68994140625	896.9000854492188	-195.5729217529297	1539.680786132812	889.6824340820312	-36.05823516845703	1448.77880859375	896.8807373046875	-247.4635314941406	1402.210693359375	967.7000122070312	-211.599853515625	1499.393920898438	792.5687866210938	-109.5629425048828	1509.265625	720.3993530273438	-136.2269439697266	1385.083618164062	640.6973876953125	-129.0437469482422	1166.050048828125	616.574462890625	-186.9247436523438	1153.478881835938	704.5097045898438	-41.80405807495117	912.5706176757812	675.9986572265625	-117.0388031005859	897.6625366210938	631.2332763671875	-114.6201858520508	1049.996459960938	611.4425659179688	-20.29132270812988	725.0189208984375	699.0325927734375	-86.14315795898438	807.2916259765625	634.9605712890625	-22.09988975524902	815.90185546875	665.9027709960938	-123.5292053222656	1524.806274414062	1062.873901367188	-139.2402038574219	1456.068481445312	1135.176391601562	-173.7564392089844	1187.143798828125	1159.6142578125	-173.3711700439453	1159.570556640625	1063.267700195312	-45.72327423095703	924.2420043945312	1133.844116210938	-110.1839981079102	911.0062255859375	1196.993041992188	-160.9344940185547	1110.806030273438	1175.863525390625	-22.93810081481934	736.7855224609375	1125.9697265625	-11.76316833496094	814.7001342773438	1149.602661132812	-68.33673095703125	811.4517822265625	1198.443237304688	-173.1277160644531	1714.219848632812	895.16650390625	41.45270156860352	1741.244018554688	867.6050415039062	-24.90739059448242	1744.52978515625	794.8369140625	-71.47177886962891	1707.074951171875	997.0288696289062	-118.1768035888672	960.077392578125	715.2035522460938	-84.78929138183594	961.56298828125	1087.55419921875	13.91775131225586	996.4749145507812	1009.107421875	-1.964718222618103	1009.279479980469	774.4649658203125	-71.98313140869141	515.572509765625	777.6788940429688	-95.38850402832031	652.376708984375	737.00634765625	-175.8614044189453	40.41336059570312	797.291015625	-154.4606018066406	283.7567443847656	769.6600952148438	38.55006790161133	38.17271041870117	879.1141357421875	-21.69238471984863	46.68959045410156	891.487548828125	-50.63333892822266	41.42236328125	789.3447265625	-248.4816284179688	48.11378860473633	844.3472290039062	-36.2236328125	525.5433959960938	1042.735473632812	-48.72732162475586	796.1834106445312	1087.050415039062	-216.7102508544922	54.48661041259766	1013.242919921875	-71.04818725585938	398.6567077636719	1042.252685546875	17.14384269714355	52.00425338745117	992.8748779296875	-43.04172515869141	55.87034606933594	956.6851806640625	-71.23522186279297	48.18416595458984	1049.659545898438	-267.3380432128906	56.58487319946289	963.3450317382812	
